<mxfile host="app.diagrams.net" modified="2023-06-17T12:55:49.549Z" agent="Mozilla/5.0 (X11; Linux x86_64) AppleWebKit/537.36 (KHTML, like Gecko) Chrome/113.0.0.0 Safari/537.36" etag="hxX1yawKrOYV_aXMl_FH" version="21.4.0" type="github">
  <diagram name="Page-1" id="zba97-1M8WYmOo2Gn8Mu">
    <mxGraphModel dx="1362" dy="807" grid="1" gridSize="10" guides="1" tooltips="1" connect="1" arrows="1" fold="1" page="1" pageScale="1" pageWidth="850" pageHeight="1100" math="0" shadow="0">
      <root>
        <mxCell id="0" />
        <mxCell id="1" parent="0" />
        <mxCell id="ApzSBD-2M0S4P9EVtKoC-3" value="" style="ellipse;shape=cloud;whiteSpace=wrap;html=1;" vertex="1" parent="1">
          <mxGeometry x="270" y="330" width="130" height="90" as="geometry" />
        </mxCell>
        <mxCell id="ApzSBD-2M0S4P9EVtKoC-1" value="Proposal (re)submission" style="rounded=1;whiteSpace=wrap;html=1;" vertex="1" parent="1">
          <mxGeometry x="180" y="170" width="120" height="60" as="geometry" />
        </mxCell>
        <mxCell id="ApzSBD-2M0S4P9EVtKoC-2" value="" style="shape=cylinder3;whiteSpace=wrap;html=1;boundedLbl=1;backgroundOutline=1;size=15;" vertex="1" parent="1">
          <mxGeometry x="305" y="348.75" width="60" height="52.5" as="geometry" />
        </mxCell>
        <mxCell id="ApzSBD-2M0S4P9EVtKoC-5" value="Proposal (re)assessment/voting" style="rounded=1;whiteSpace=wrap;html=1;" vertex="1" parent="1">
          <mxGeometry x="390" y="170" width="150" height="60" as="geometry" />
        </mxCell>
        <mxCell id="ApzSBD-2M0S4P9EVtKoC-6" value="Funding with SCV procedure" style="rounded=1;whiteSpace=wrap;html=1;" vertex="1" parent="1">
          <mxGeometry x="610" y="170" width="150" height="60" as="geometry" />
        </mxCell>
        <mxCell id="ApzSBD-2M0S4P9EVtKoC-7" value="Project Repository" style="rounded=0;whiteSpace=wrap;html=1;" vertex="1" parent="1">
          <mxGeometry x="20" y="170" width="120" height="60" as="geometry" />
        </mxCell>
        <mxCell id="ApzSBD-2M0S4P9EVtKoC-9" value="Project Execution" style="rounded=1;whiteSpace=wrap;html=1;" vertex="1" parent="1">
          <mxGeometry x="20" y="370" width="120" height="60" as="geometry" />
        </mxCell>
        <mxCell id="ApzSBD-2M0S4P9EVtKoC-11" value="Branching/&lt;br&gt;Commits" style="ellipse;shape=umlControl;whiteSpace=wrap;html=1;" vertex="1" parent="1">
          <mxGeometry x="27.5" y="410" width="105" height="120" as="geometry" />
        </mxCell>
        <mxCell id="ApzSBD-2M0S4P9EVtKoC-12" value="&lt;b&gt;&lt;font style=&quot;font-size: 41px;&quot;&gt;GIT ON CHAIN&lt;/font&gt;&lt;/b&gt;" style="shape=cylinder3;whiteSpace=wrap;html=1;boundedLbl=1;backgroundOutline=1;size=15;" vertex="1" parent="1">
          <mxGeometry x="27.5" y="600" width="772.5" height="450" as="geometry" />
        </mxCell>
        <mxCell id="ApzSBD-2M0S4P9EVtKoC-13" value="DAO driven deployment" style="ellipse;whiteSpace=wrap;html=1;" vertex="1" parent="1">
          <mxGeometry x="20" y="230" width="125" height="80" as="geometry" />
        </mxCell>
        <mxCell id="ApzSBD-2M0S4P9EVtKoC-14" value="DAO driven deployment" style="ellipse;whiteSpace=wrap;html=1;" vertex="1" parent="1">
          <mxGeometry x="177.5" y="230" width="125" height="80" as="geometry" />
        </mxCell>
        <mxCell id="ApzSBD-2M0S4P9EVtKoC-15" value="DAO driven Soft Majority Voting" style="ellipse;whiteSpace=wrap;html=1;" vertex="1" parent="1">
          <mxGeometry x="402.5" y="230" width="125" height="80" as="geometry" />
        </mxCell>
        <mxCell id="ApzSBD-2M0S4P9EVtKoC-16" value="DAO driven Soft Cooperative Voting" style="ellipse;whiteSpace=wrap;html=1;" vertex="1" parent="1">
          <mxGeometry x="622.5" y="230" width="125" height="80" as="geometry" />
        </mxCell>
      </root>
    </mxGraphModel>
  </diagram>
</mxfile>
